<?xml version="1.0" standalone="no"?>
<!DOCTYPE svg PUBLIC "-//W3C//DTD SVG 20010904//EN"
 "http://www.w3.org/TR/2001/REC-SVG-20010904/DTD/svg10.dtd">
<svg version="1.0" xmlns="http://www.w3.org/2000/svg"
 width="400.000000pt" height="300.000000pt" viewBox="0 0 400.000000 300.000000"
 preserveAspectRatio="xMidYMid meet">

<g transform="translate(0.000000,300.000000) scale(0.100000,-0.100000)"
fill="#000000" stroke="none">
<path d="M2580 2658 c-89 -40 -102 -43 -201 -46 l-107 -4 -6 -151 c-6 -118 -4
-171 9 -237 32 -176 32 -220 -2 -220 -14 0 -13 -3 5 -22 26 -29 18 -41 -60
-91 -32 -20 -58 -42 -58 -48 0 -7 12 -32 26 -57 20 -34 24 -51 19 -78 -4 -23
-1 -41 10 -56 8 -13 15 -33 15 -45 0 -13 9 -40 20 -60 13 -24 20 -57 20 -91 0
-78 20 -94 149 -116 l105 -19 -34 -30 c-31 -27 -37 -29 -92 -24 l-59 5 -67
-59 c-37 -33 -100 -76 -140 -96 l-72 -36 -72 13 c-64 12 -75 12 -117 -4 -25
-10 -53 -18 -61 -18 -111 1 -334 12 -362 17 -28 5 -43 16 -59 41 l-20 33 31
46 c17 25 45 51 63 59 60 25 61 28 41 203 l-17 158 26 52 c32 62 34 96 7 157
-12 29 -17 57 -14 75 6 28 -7 44 -61 76 -13 8 -22 42 -36 140 -32 224 -39 254
-62 267 -18 9 -177 7 -262 -4 -17 -3 -22 7 -35 55 -8 31 -17 57 -21 57 -3 0
-14 -9 -23 -19 -16 -18 -16 -23 3 -85 11 -36 25 -114 31 -173 5 -60 12 -127
16 -151 5 -42 5 -43 -16 -32 -28 15 -55 79 -89 214 l-28 110 -26 -45 c-38 -65
-123 -247 -137 -295 -10 -33 -9 -54 4 -120 15 -72 15 -84 1 -123 -9 -26 -15
-78 -15 -131 0 -74 -3 -90 -20 -105 -27 -24 -26 -66 4 -191 114 -470 451 -840
899 -989 156 -52 238 -65 401 -65 106 0 145 3 149 13 8 20 215 297 270 360 27
32 52 56 54 53 2 -2 -18 -73 -45 -158 -62 -194 -67 -211 -50 -206 7 3 44 92
81 199 37 107 81 222 96 256 35 73 93 139 168 189 59 39 63 46 119 199 70 191
253 547 367 713 l50 72 -49 112 c-50 115 -129 250 -192 328 -59 71 -203 210
-251 241 -63 41 -105 38 -221 -13z m101 -360 c16 -31 19 -57 18 -165 -1 -70
-4 -166 -8 -213 l-6 -85 -8 119 c-8 129 -35 277 -67 370 -11 33 -20 64 -20 70
0 17 71 -57 91 -96z m-1336 47 c0 -5 -36 -13 -80 -16 -44 -3 -101 -9 -126 -13
-37 -5 -48 -4 -52 8 -6 16 6 21 68 29 57 8 190 2 190 -8z m1085 -66 c12 -39
24 -78 27 -85 4 -11 -4 -13 -39 -8 -28 4 -54 2 -68 -6 -22 -12 -22 -11 -16 16
8 32 65 154 71 154 2 0 14 -32 25 -71z m-1066 -21 c3 -17 4 -34 0 -37 -3 -3
-39 -6 -79 -6 -62 -1 -78 -4 -98 -23 -13 -12 -28 -22 -34 -22 -10 0 -44 91
-37 99 6 6 116 18 180 20 61 1 62 1 68 -31z m-446 -71 c11 -12 32 -47 47 -79
14 -31 37 -64 51 -73 14 -9 63 -50 109 -91 46 -40 86 -74 89 -74 3 0 -3 15
-14 33 -20 33 -24 64 -14 105 8 29 28 28 53 -4 17 -21 21 -41 21 -98 0 -39 5
-105 10 -146 l10 -75 -37 -37 -38 -37 -140 35 c-76 18 -147 34 -157 34 -9 0
-21 6 -25 14 -4 7 -23 21 -41 30 -29 15 -33 22 -30 49 3 27 7 32 30 32 l26 -1
-24 42 c-13 22 -24 50 -24 62 0 25 25 41 51 35 25 -7 25 12 -5 135 -21 92 -22
102 -8 116 22 22 35 20 60 -7z m462 -57 c0 -18 -7 -20 -55 -20 -41 0 -55 4
-55 14 0 17 19 23 73 25 31 1 37 -2 37 -19z m1105 -16 c19 -46 19 -64 0 -64
-20 0 -78 29 -87 44 -5 7 -8 4 -8 -8 0 -12 -5 -16 -15 -12 -13 5 -13 2 1 -20
19 -28 18 -31 -11 -36 -18 -3 -20 3 -23 65 l-3 67 65 0 66 0 15 -36z m-1235
17 c0 -23 -24 -71 -35 -71 -15 0 -45 38 -45 57 0 10 16 15 68 22 6 0 12 -3 12
-8z m80 -66 c0 -11 -17 -58 -26 -73 -1 -2 -12 5 -23 15 -26 21 -27 48 -3 62
25 15 52 13 52 -4z m1130 -59 c0 -3 -4 -8 -10 -11 -5 -3 -10 -1 -10 4 0 6 5
11 10 11 6 0 10 -2 10 -4z m134 -154 l67 -143 -72 -127 c-92 -160 -109 -178
-182 -196 -88 -23 -103 -13 -112 71 -3 38 -15 83 -26 102 -24 40 -18 49 41 59
l45 7 -45 14 c-25 7 -55 19 -67 27 -19 12 -21 18 -13 40 11 27 4 49 -34 106
l-17 27 65 41 c36 23 66 45 66 49 0 19 51 61 75 61 22 0 25 -4 25 -33 0 -18
-5 -38 -12 -45 -7 -7 -8 -12 -2 -12 5 0 34 25 64 55 30 30 57 52 61 47 4 -4
37 -71 73 -150z m-1173 99 c35 -29 17 -35 -42 -16 -36 12 -47 20 -38 26 23 14
55 10 80 -10z m-40 -54 c20 -8 39 -19 42 -24 8 -13 40 -263 34 -269 -7 -8
-228 -64 -249 -64 -20 0 -20 1 -2 28 9 15 35 48 56 73 l38 46 -9 105 c-5 57
-7 116 -4 131 l5 27 27 -19 c14 -10 42 -26 62 -34z m89 -365 c0 -18 -32 -29
-252 -90 -14 -3 -18 2 -18 21 0 22 6 28 43 38 23 6 71 19 107 29 87 25 120 25
120 2z m14 -108 c3 -9 6 -32 6 -52 l0 -37 -99 -28 c-69 -20 -118 -42 -165 -73
-36 -24 -66 -41 -66 -37 1 5 11 44 24 88 l24 79 118 37 c137 43 150 45 158 23z
m-420 -485 c4 -9 1 -21 -7 -27 -12 -10 -17 -3 -30 40 -35 114 -48 176 -52 258
l-5 85 44 -170 c24 -93 46 -177 50 -186z m1211 161 c-16 -16 -31 -27 -34 -24
-5 4 48 53 58 54 3 0 -8 -13 -24 -30z m-444 -473 l-24 -22 19 27 c10 14 21 24
23 22 3 -3 -6 -15 -18 -27z"/>
<path d="M919 1886 c8 -9 28 -24 45 -33 42 -22 20 5 -26 31 -29 17 -31 18 -19
2z"/>
</g>
</svg>
